<svg width="24" height="23" viewBox="0 0 24 23" fill="none" xmlns="http://www.w3.org/2000/svg">
<path d="M7.5 10.5L13 11.5294L6 16" stroke="white" stroke-width="2"/>
<path d="M12 0.955017C5.81442 0.955017 0.800018 5.83673 0.800018 11.8586C0.800018 17.8806 5.81442 22.7623 12 22.7623C18.1856 22.7623 23.2 17.8806 23.2 11.8586C23.2 5.83673 18.1856 0.955017 12 0.955017ZM12 21.2046C6.69826 21.2046 2.40002 17.0204 2.40002 11.8586C2.40002 6.69687 6.69826 2.51268 12 2.51268C17.3018 2.51268 21.6 6.69687 21.6 11.8586C21.6 17.0204 17.3018 21.2046 12 21.2046Z" fill="white"/>
</svg>
